<svg xmlns="http://www.w3.org/2000/svg" xmlns:xlink="http://www.w3.org/1999/xlink" width="16" height="16"><defs><path id="a" d="M0 0h16v16H0z"/></defs><g fill="none" fill-rule="evenodd"><mask id="b" fill="#fff"><use xlink:href="#a"/></mask><path d="M9.179 12.143h.642a.321.321 0 00.322-.322V6.036a.321.321 0 00-.322-.322H9.18a.321.321 0 00-.322.322v5.785c0 .178.144.322.322.322zm4.392-9h-2.207l-.91-1.519A1.286 1.286 0 009.35 1h-2.7c-.452 0-.87.237-1.103.624l-.911 1.519H2.429A.429.429 0 002 3.57V4c0 .237.192.429.429.429h.428v9c0 .71.576 1.285 1.286 1.285h7.714c.71 0 1.286-.575 1.286-1.285v-9h.428A.429.429 0 0014 4v-.429a.429.429 0 00-.429-.428zm-6.968-.78a.16.16 0 01.138-.077H9.26a.16.16 0 01.138.078l.468.779h-3.73l.468-.78zm5.254 11.066H4.143v-9h7.714v9zM6.18 12.143h.642a.321.321 0 00.322-.322V6.036a.321.321 0 00-.322-.322H6.18a.321.321 0 00-.322.322v5.785c0 .178.144.322.322.322z" fill="#E8585A" mask="url(#b)"/></g></svg>